<svg width="216" height="217" viewBox="0 0 216 217" fill="none" xmlns="http://www.w3.org/2000/svg">
<g id="About logo">
<path d="M0.0432633 0.543213H215.957V216.457H0.0432633V0.543213Z" fill="#131313"/>
<path d="M216 108.5L108 216.5L0 108.5L108 0.5" fill="#FFE500"/>
<path d="M209.304 108.5L108 209.804L6.69606 108.5L108 7.19601" fill="#131313"/>
<path d="M171.504 108.5L108 172.004L44.4961 108.5L108 44.996" fill="#FFE500"/>
<path d="M168.48 108.5L108 168.98L47.5201 108.5L108 48.02" fill="#131313"/>
<path d="M163.944 108.5L108 164.444L52.0561 108.5L108 52.556" fill="#FFE500"/>
<path d="M154.872 108.5L108 155.372L61.1281 108.5L108 61.628" fill="#131313"/>
<path d="M85.788 44.9962L89.1365 48.3447L47.8447 89.6366L44.4961 86.288L85.788 44.9962Z" fill="#FFE500"/>
<path d="M168.041 127.249L171.389 130.597L130.097 171.889L126.749 168.541L168.041 127.249Z" fill="#FFE500"/>
<path d="M126.749 48.3446L130.097 44.996L171.389 86.2879L168.041 89.6365L126.749 48.3446Z" fill="#FFE500"/>
<path d="M44.4961 130.597L47.8446 127.249L89.1365 168.541L85.7879 171.889L44.4961 130.597Z" fill="#FFE500"/>
<path d="M87.0909 95.9976H98.0451C100.135 95.9976 101.722 96.5911 102.806 97.7781C103.89 98.9651 104.432 100.694 104.432 102.965C104.432 104.694 104.058 106.049 103.309 107.029C102.561 108.01 101.49 108.565 100.097 108.694V109.158C100.871 109.158 101.567 109.313 102.187 109.623C102.832 109.906 103.387 110.319 103.851 110.861C104.316 111.403 104.677 112.048 104.935 112.796C105.193 113.545 105.322 114.358 105.322 115.235C105.322 116.396 105.167 117.454 104.858 118.409C104.574 119.364 104.161 120.19 103.619 120.886C103.077 121.557 102.419 122.086 101.645 122.473C100.896 122.835 100.058 123.015 99.1288 123.015H87.0909V95.9976ZM91.1939 119.415H97.9289C98.9095 119.415 99.6578 119.157 100.174 118.641C100.69 118.099 100.948 117.248 100.948 116.087V114.306C100.948 113.145 100.69 112.306 100.174 111.79C99.6578 111.248 98.9095 110.977 97.9289 110.977H91.1939V119.415ZM91.1939 107.455H97.2709C98.1741 107.455 98.8708 107.223 99.3611 106.758C99.8514 106.268 100.097 105.481 100.097 104.397V102.655C100.097 101.571 99.8514 100.797 99.3611 100.333C98.8708 99.8425 98.1741 99.5973 97.2709 99.5973H91.1939V107.455Z" fill="#FFE500"/>
<path d="M125.671 119.028H125.207C124.949 120.319 124.291 121.389 123.233 122.241C122.175 123.067 120.678 123.48 118.743 123.48C117.349 123.48 116.059 123.222 114.872 122.706C113.711 122.189 112.692 121.377 111.814 120.267C110.937 119.132 110.253 117.687 109.763 115.932C109.272 114.151 109.027 112.022 109.027 109.545C109.027 107.068 109.26 104.952 109.724 103.197C110.214 101.417 110.911 99.9586 111.814 98.8232C112.743 97.6878 113.853 96.862 115.143 96.3459C116.433 95.804 117.891 95.5331 119.517 95.5331C121.917 95.5331 123.865 96.0492 125.362 97.0814C126.858 98.1136 128.02 99.5844 128.845 101.494L125.478 103.468C125.013 102.152 124.304 101.107 123.349 100.333C122.42 99.5586 121.156 99.1716 119.556 99.1716C117.62 99.1716 116.111 99.7909 115.027 101.03C113.969 102.268 113.44 103.997 113.44 106.216V112.796C113.44 115.016 113.969 116.745 115.027 117.983C116.111 119.222 117.62 119.841 119.556 119.841C120.356 119.841 121.104 119.725 121.801 119.493C122.497 119.261 123.104 118.925 123.62 118.486C124.162 118.048 124.575 117.506 124.859 116.861C125.168 116.19 125.323 115.441 125.323 114.616V112.255H120.33V108.732H129.31V123.015H125.671V119.028Z" fill="#FFE500"/>
</g>
</svg>
