<svg width="95" height="73" viewBox="0 0 95 73" fill="none" xmlns="http://www.w3.org/2000/svg">
<rect width="95" height="73" fill="#DDDDDD"/>
<g id="Desktop Landing Page" clip-path="url(#clip0_0_1)">
<rect width="1440" height="4152" transform="translate(-1252 -1073)" fill="#131313"/>
<g id="Hero section">
<g id="Hero blur" filter="url(#filter0_f_0_1)">
<ellipse cx="-805.053" cy="12.5717" rx="365.424" ry="816.033" transform="rotate(-70.7023 -805.053 12.5717)" fill="#FFE500" fill-opacity="0.1"/>
</g>
</g>
<g id="About section">
<rect id="About background" x="-1252" y="-163" width="1440" height="1154" fill="#131313"/>
<g id="What is BLACKGEAR">
<rect id="Rectangle 9" x="-1252" y="-12" width="1440" height="96" fill="#FFE500"/>
<g id="Right three stripes">
<rect id="Rectangle 18" x="0.680054" y="67.55" width="78" height="10" transform="rotate(-60 0.680054 67.55)" fill="#131313"/>
<rect id="Rectangle 19" x="23.6801" y="67.55" width="78" height="10" transform="rotate(-60 23.6801 67.55)" fill="#131313"/>
<rect id="Rectangle 20" x="46.6801" y="67.55" width="78" height="10" transform="rotate(-60 46.6801 67.55)" fill="#131313"/>
</g>
<rect id="Rectangle 18_2" x="-1252" y="-2" width="1440" height="10" fill="#131313"/>
<rect id="Rectangle 19_2" x="-1252" y="64" width="1440" height="10" fill="#131313"/>
</g>
</g>
</g>
<defs>
<filter id="filter0_f_0_1" x="-2043.76" y="-884.258" width="2477.41" height="1793.66" filterUnits="userSpaceOnUse" color-interpolation-filters="sRGB">
<feFlood flood-opacity="0" result="BackgroundImageFix"/>
<feBlend mode="normal" in="SourceGraphic" in2="BackgroundImageFix" result="shape"/>
<feGaussianBlur stdDeviation="229.5" result="effect1_foregroundBlur_0_1"/>
</filter>
<clipPath id="clip0_0_1">
<rect width="1440" height="4152" fill="white" transform="translate(-1252 -1073)"/>
</clipPath>
</defs>
</svg>
