<svg width="260" height="70" viewBox="0 0 260 70" fill="none" xmlns="http://www.w3.org/2000/svg">
<rect width="260" height="70" fill="#FFE500"/>
<path d="M42.3149 23.268H52.8549C54.7589 23.268 56.1643 23.8233 57.0709 24.934C58.0003 26.0447 58.4649 27.518 58.4649 29.354C58.4649 30.3513 58.3403 31.1787 58.0909 31.836C57.8643 32.4707 57.5583 32.9807 57.1729 33.366C56.8103 33.7287 56.3909 34.0007 55.9149 34.182C55.4389 34.3407 54.9516 34.4313 54.4529 34.454V34.998C54.9969 34.998 55.5523 35.0887 56.1189 35.27C56.7083 35.4513 57.2409 35.7573 57.7169 36.188C58.1929 36.596 58.5783 37.14 58.8729 37.82C59.1676 38.4773 59.3149 39.282 59.3149 40.234C59.3149 41.1633 59.1903 42.0473 58.9409 42.886C58.6916 43.702 58.3289 44.416 57.8529 45.028C57.3769 45.64 56.7989 46.1273 56.1189 46.49C55.4389 46.83 54.6683 47 53.8069 47H42.3149V23.268ZM47.1769 42.886H52.4469C52.9909 42.886 53.4216 42.7273 53.7389 42.41C54.0789 42.0927 54.2489 41.56 54.2489 40.812V39.112C54.2489 38.364 54.0789 37.8313 53.7389 37.514C53.4216 37.1967 52.9909 37.038 52.4469 37.038H47.1769V42.886ZM47.1769 33.026H51.6649C52.2316 33.026 52.6736 32.8673 52.9909 32.55C53.3083 32.2327 53.4669 31.7113 53.4669 30.986V29.422C53.4669 28.6967 53.3083 28.1753 52.9909 27.858C52.6736 27.5407 52.2316 27.382 51.6649 27.382H47.1769V33.026ZM62.7681 47V23.268H67.6301V42.75H75.6881V47H62.7681ZM92.5624 47L91.1004 41.186H83.8244L82.3624 47H77.7044L84.4364 23.268H90.6244L97.3564 47H92.5624ZM88.4484 31.802L87.7004 27.688H87.1564L86.4084 31.802L85.0144 37.276H89.9104L88.4484 31.802ZM108.394 47.408C106.966 47.408 105.663 47.1927 104.484 46.762C103.328 46.3313 102.331 45.64 101.492 44.688C100.676 43.736 100.03 42.4893 99.5539 40.948C99.1006 39.4067 98.8739 37.5253 98.8739 35.304C98.8739 33.0827 99.1006 31.19 99.5539 29.626C100.03 28.0393 100.676 26.7473 101.492 25.75C102.331 24.7527 103.328 24.0273 104.484 23.574C105.663 23.098 106.966 22.86 108.394 22.86C110.525 22.86 112.202 23.3247 113.426 24.254C114.673 25.1607 115.693 26.5433 116.486 28.402L112.27 30.578C112.134 30.0793 111.975 29.6147 111.794 29.184C111.635 28.7533 111.409 28.3907 111.114 28.096C110.819 27.8013 110.445 27.5747 109.992 27.416C109.561 27.2347 109.029 27.144 108.394 27.144C107.034 27.144 105.969 27.552 105.198 28.368C104.427 29.184 104.042 30.408 104.042 32.04V38.228C104.042 39.86 104.427 41.084 105.198 41.9C105.969 42.716 107.034 43.124 108.394 43.124C109.029 43.124 109.573 43.0333 110.026 42.852C110.502 42.648 110.899 42.3873 111.216 42.07C111.533 41.73 111.794 41.3447 111.998 40.914C112.202 40.4607 112.383 39.9733 112.542 39.452L116.554 41.764C116.146 42.648 115.693 43.4413 115.194 44.144C114.695 44.8467 114.117 45.4473 113.46 45.946C112.825 46.422 112.089 46.7847 111.25 47.034C110.411 47.2833 109.459 47.408 108.394 47.408ZM127.327 36.494L124.573 40.234V47H119.711V23.268H124.573V30.952L124.369 34.726H124.913L127.259 30.952L132.427 23.268H137.935L130.761 33.162L138.547 47H132.835L127.327 36.494ZM153.431 43.26H152.887C152.728 44.484 152.184 45.4813 151.255 46.252C150.348 47.0227 149.113 47.408 147.549 47.408C146.416 47.408 145.339 47.1927 144.319 46.762C143.299 46.3313 142.404 45.64 141.633 44.688C140.862 43.736 140.239 42.4893 139.763 40.948C139.31 39.384 139.083 37.48 139.083 35.236C139.083 32.992 139.31 31.088 139.763 29.524C140.216 27.96 140.851 26.6907 141.667 25.716C142.483 24.7187 143.469 23.9933 144.625 23.54C145.781 23.0867 147.073 22.86 148.501 22.86C150.632 22.86 152.4 23.3247 153.805 24.254C155.21 25.1607 156.31 26.5207 157.103 28.334L153.125 30.612C152.808 29.5467 152.275 28.708 151.527 28.096C150.779 27.4613 149.759 27.144 148.467 27.144C147.175 27.144 146.144 27.552 145.373 28.368C144.625 29.184 144.251 30.408 144.251 32.04V38.228C144.251 39.86 144.636 41.084 145.407 41.9C146.178 42.6933 147.243 43.09 148.603 43.09C149.827 43.09 150.836 42.784 151.629 42.172C152.445 41.5373 152.853 40.608 152.853 39.384V37.99H148.943V33.91H157.511V47H153.431V43.26ZM161.879 47V23.268H176.567V27.518H166.741V32.89H175.071V37.106H166.741V42.75H176.567V47H161.879ZM193.766 47L192.304 41.186H185.028L183.566 47H178.908L185.64 23.268H191.828L198.56 47H193.766ZM189.652 31.802L188.904 27.688H188.36L187.612 31.802L186.218 37.276H191.114L189.652 31.802ZM206.419 47H201.557V23.268H211.825C213.956 23.268 215.576 23.9367 216.687 25.274C217.798 26.6113 218.353 28.402 218.353 30.646C218.353 32.3913 218.024 33.8647 217.367 35.066C216.71 36.2673 215.735 37.106 214.443 37.582L218.591 47H213.321L209.649 38.024H206.419V47ZM211.213 33.978C211.87 33.978 212.38 33.8193 212.743 33.502C213.128 33.162 213.321 32.584 213.321 31.768V29.728C213.321 28.912 213.128 28.3453 212.743 28.028C212.38 27.688 211.87 27.518 211.213 27.518H206.419V33.978H211.213Z" fill="#131313"/>
<rect y="6" width="260" height="5.5" fill="#131313"/>
<rect y="58.5" width="260" height="5.5" fill="#131313"/>
</svg>
