<svg width="70" height="70" viewBox="0 0 70 70" fill="none" xmlns="http://www.w3.org/2000/svg">
<g id="Logo smaller 2 vector">
<path d="M0.0140205 0.0140041H69.986V69.986H0.0140205V0.0140041Z" fill="#222222"/>
<path d="M70 35L35 70L0 35L35 0" fill="#FFE500"/>
<path d="M67.83 35L35 67.83L2.17002 35L35 2.17" fill="#222222"/>
<path d="M55.58 35L35 55.58L14.42 35L35 14.42" fill="#FFE500"/>
<path d="M54.6 35L35 54.6L15.4 35L35 15.4" fill="#222222"/>
<path d="M53.13 35L35 53.13L16.87 35L35 16.87" fill="#FFE500"/>
<path d="M50.19 35L35 50.19L19.81 35L35 19.81" fill="#222222"/>
<path d="M27.8017 14.4201L28.8868 15.5052L15.5052 28.8869L14.42 27.8017L27.8017 14.4201Z" fill="#FFE500"/>
<path d="M54.4577 41.076L55.5428 42.1612L42.1612 55.5428L41.076 54.4576L54.4577 41.076Z" fill="#FFE500"/>
<path d="M41.076 15.5052L42.1612 14.42L55.5428 27.8016L54.4576 28.8868L41.076 15.5052Z" fill="#FFE500"/>
<path d="M14.42 42.1612L15.5052 41.076L28.8868 54.4576L27.8017 55.5428L14.42 42.1612Z" fill="#FFE500"/>
<path d="M28.2239 30.9483H31.7739C32.4512 30.9483 32.9655 31.1406 33.3168 31.5253C33.668 31.91 33.8436 32.4703 33.8436 33.2062C33.8436 33.7665 33.7224 34.2055 33.4798 34.5233C33.2373 34.8411 32.8903 35.0209 32.4387 35.0627V35.2132C32.6896 35.2132 32.9154 35.2634 33.1161 35.3638C33.3251 35.4558 33.5049 35.5896 33.6555 35.7652C33.806 35.9408 33.9231 36.1499 34.0067 36.3924C34.0903 36.6349 34.1321 36.8983 34.1321 37.1827C34.1321 37.559 34.082 37.9018 33.9816 38.2113C33.8896 38.5207 33.7558 38.7883 33.5802 39.0141C33.4046 39.2315 33.1913 39.4029 32.9404 39.5284C32.6979 39.6455 32.4261 39.704 32.1251 39.704H28.2239V30.9483ZM29.5536 38.5374H31.7362C32.054 38.5374 32.2965 38.4538 32.4638 38.2865C32.631 38.1109 32.7147 37.8349 32.7147 37.4586V36.8816C32.7147 36.5053 32.631 36.2335 32.4638 36.0662C32.2965 35.8906 32.054 35.8028 31.7362 35.8028H29.5536V38.5374ZM29.5536 34.6613H31.523C31.8157 34.6613 32.0415 34.586 32.2004 34.4355C32.3592 34.2766 32.4387 34.0216 32.4387 33.6703V33.1059C32.4387 32.7546 32.3592 32.5037 32.2004 32.3532C32.0415 32.1943 31.8157 32.1149 31.523 32.1149H29.5536V34.6613Z" fill="#FFE500"/>
<path d="M40.7268 38.412H40.5763C40.4927 38.8301 40.2794 39.1772 39.9366 39.4531C39.5937 39.7207 39.1087 39.8545 38.4815 39.8545C38.0299 39.8545 37.6118 39.7709 37.2271 39.6036C36.8507 39.4364 36.5204 39.173 36.2361 38.8134C35.9518 38.4454 35.7302 37.9771 35.5713 37.4084C35.4124 36.8314 35.3329 36.1415 35.3329 35.3387C35.3329 34.5359 35.4082 33.8501 35.5587 33.2815C35.7176 32.7044 35.9434 32.232 36.2361 31.864C36.5371 31.496 36.8967 31.2284 37.3149 31.0612C37.733 30.8856 38.2055 30.7978 38.7323 30.7978C39.5101 30.7978 40.1415 30.965 40.6265 31.2995C41.1115 31.634 41.4878 32.1107 41.7555 32.7295L40.6641 33.3693C40.5136 32.9428 40.2836 32.6041 39.9742 32.3532C39.6731 32.1023 39.2634 31.9769 38.7449 31.9769C38.1177 31.9769 37.6285 32.1776 37.2772 32.579C36.9344 32.9804 36.7629 33.5407 36.7629 34.2599V36.3924C36.7629 37.1116 36.9344 37.6719 37.2772 38.0733C37.6285 38.4747 38.1177 38.6754 38.7449 38.6754C39.0041 38.6754 39.2467 38.6378 39.4724 38.5625C39.6982 38.4872 39.8948 38.3785 40.062 38.2364C40.2376 38.0942 40.3714 37.9186 40.4634 37.7095C40.5638 37.4921 40.6139 37.2496 40.6139 36.9819V36.2168H38.9958V35.0753H41.906V39.704H40.7268V38.412Z" fill="#FFE500"/>
</g>
</svg>
