<svg width="70" height="70" viewBox="0 0 70 70" fill="none" xmlns="http://www.w3.org/2000/svg">
<path d="M0 0H70V70H0V0Z" fill="#131313"/>
<path d="M66.25 35L35 66.25L3.74997 35L35 3.75" fill="#FFE500"/>
<path d="M64.3125 35L35 64.3125L5.6875 35L35 5.6875" fill="#131313"/>
<path d="M53.375 35L35 53.375L16.625 35L35 16.625" fill="#FFE500"/>
<path d="M52.5 35L35 52.5L17.5 35L35 17.5" fill="#131313"/>
<path d="M51.1875 35L35 51.1875L18.8125 35L35 18.8125" fill="#FFE500"/>
<path d="M48.5625 35L35 48.5625L21.4375 35L35 21.4375" fill="#131313"/>
<path d="M28.5729 16.625L29.5418 17.594L17.5939 29.5418L16.625 28.5729L28.5729 16.625Z" fill="#FFE500"/>
<path d="M52.3729 40.425L53.3418 41.3939L41.3939 53.3418L40.425 52.3729L52.3729 40.425Z" fill="#FFE500"/>
<path d="M40.425 17.5939L41.3939 16.625L53.3418 28.5729L52.3729 29.5418L40.425 17.5939Z" fill="#FFE500"/>
<path d="M16.625 41.3939L17.5939 40.425L29.5418 52.3729L28.5729 53.3418L16.625 41.3939Z" fill="#FFE500"/>
<path d="M28.9499 31.3824H32.1195C32.7243 31.3824 33.1835 31.5541 33.4971 31.8976C33.8107 32.2411 33.9675 32.7413 33.9675 33.3984C33.9675 33.8987 33.8592 34.2907 33.6427 34.5744C33.4262 34.8581 33.1163 35.0187 32.7131 35.056V35.1904C32.9371 35.1904 33.1387 35.2352 33.3179 35.3248C33.5046 35.4069 33.6651 35.5264 33.7995 35.6832C33.9339 35.84 34.0384 36.0267 34.1131 36.2432C34.1878 36.4597 34.2251 36.6949 34.2251 36.9488C34.2251 37.2848 34.1803 37.5909 34.0907 37.8672C34.0086 38.1435 33.8891 38.3824 33.7323 38.584C33.5755 38.7781 33.3851 38.9312 33.1611 39.0432C32.9446 39.1477 32.7019 39.2 32.4331 39.2H28.9499V31.3824ZM30.1371 38.1584H32.0859C32.3696 38.1584 32.5862 38.0837 32.7355 37.9344C32.8848 37.7776 32.9595 37.5312 32.9595 37.1952V36.68C32.9595 36.344 32.8848 36.1013 32.7355 35.952C32.5862 35.7952 32.3696 35.7168 32.0859 35.7168H30.1371V38.1584ZM30.1371 34.6976H31.8955C32.1568 34.6976 32.3584 34.6304 32.5003 34.496C32.6422 34.3541 32.7131 34.1264 32.7131 33.8128V33.3088C32.7131 32.9952 32.6422 32.7712 32.5003 32.6368C32.3584 32.4949 32.1568 32.424 31.8955 32.424H30.1371V34.6976Z" fill="#FFE500"/>
<path d="M40.1132 38.0464H39.9788C39.9042 38.4197 39.7138 38.7296 39.4076 38.976C39.1015 39.2149 38.6684 39.3344 38.1084 39.3344C37.7052 39.3344 37.3319 39.2597 36.9884 39.1104C36.6524 38.9611 36.3575 38.7259 36.1036 38.4048C35.8498 38.0763 35.6519 37.6581 35.51 37.1504C35.3682 36.6352 35.2972 36.0192 35.2972 35.3024C35.2972 34.5856 35.3644 33.9733 35.4988 33.4656C35.6407 32.9504 35.8423 32.5285 36.1036 32.2C36.3724 31.8715 36.6935 31.6325 37.0668 31.4832C37.4402 31.3264 37.862 31.248 38.3324 31.248C39.0268 31.248 39.5906 31.3973 40.0236 31.696C40.4567 31.9947 40.7927 32.4203 41.0316 32.9728L40.0572 33.544C39.9228 33.1632 39.7175 32.8608 39.4412 32.6368C39.1724 32.4128 38.8066 32.3008 38.3436 32.3008C37.7836 32.3008 37.3468 32.48 37.0332 32.8384C36.7271 33.1968 36.574 33.6971 36.574 34.3392V36.2432C36.574 36.8853 36.7271 37.3856 37.0332 37.744C37.3468 38.1024 37.7836 38.2816 38.3436 38.2816C38.5751 38.2816 38.7916 38.248 38.9932 38.1808C39.1948 38.1136 39.3703 38.0165 39.5196 37.8896C39.6764 37.7627 39.7959 37.6059 39.878 37.4192C39.9676 37.2251 40.0124 37.0085 40.0124 36.7696V36.0864H38.5676V35.0672H41.166V39.2H40.1132V38.0464Z" fill="#FFE500"/>
</svg>
