<svg width="50" height="50" viewBox="0 0 50 50" fill="none" xmlns="http://www.w3.org/2000/svg">
<g id="ic:baseline-telegram">
<path id="Vector" d="M25 4.16675C13.5 4.16675 4.16667 13.5001 4.16667 25.0001C4.16667 36.5001 13.5 45.8334 25 45.8334C36.5 45.8334 45.8333 36.5001 45.8333 25.0001C45.8333 13.5001 36.5 4.16675 25 4.16675ZM34.6667 18.3334C34.3542 21.6251 33 29.6251 32.3125 33.3126C32.0208 34.8751 31.4375 35.3959 30.8958 35.4584C29.6875 35.5626 28.7708 34.6668 27.6042 33.8959C25.7708 32.6876 24.7292 31.9376 22.9583 30.7709C20.8958 29.4168 22.2292 28.6667 23.4167 27.4584C23.7292 27.1459 29.0625 22.2917 29.1667 21.8542C29.1811 21.788 29.1792 21.7192 29.1611 21.6538C29.1429 21.5885 29.1091 21.5286 29.0625 21.4792C28.9375 21.3751 28.7708 21.4167 28.625 21.4376C28.4375 21.4792 25.5208 23.4167 19.8333 27.2501C19 27.8126 18.25 28.1042 17.5833 28.0834C16.8333 28.0626 15.4167 27.6667 14.3542 27.3126C13.0417 26.8959 12.0208 26.6667 12.1042 25.9376C12.1458 25.5626 12.6667 25.1876 13.6458 24.7917C19.7292 22.1459 23.7708 20.3959 25.7917 19.5626C31.5833 17.1459 32.7708 16.7292 33.5625 16.7292C33.7292 16.7292 34.125 16.7709 34.375 16.9792C34.5833 17.1459 34.6458 17.3751 34.6667 17.5417C34.6458 17.6667 34.6875 18.0417 34.6667 18.3334Z" fill="white"/>
</g>
</svg>
